<svg xmlns="http://www.w3.org/2000/svg" viewBox="0 0 1280 740" font-family="'Segoe UI', Arial, sans-serif">
  <!-- Background -->
  <rect width="1280" height="740" fill="#0f1117"/>

  <!-- Filament sidebar -->
  <rect width="260" height="740" fill="#111827"/>
  <!-- Filament logo area -->
  <rect x="0" y="0" width="260" height="60" fill="#0d1424"/>
  <rect x="20" y="18" width="28" height="28" fill="#f59e0b" rx="6"/>
  <text x="32" y="37" fill="#0d1424" font-size="14" font-weight="900">F</text>
  <text x="58" y="35" fill="white" font-size="14" font-weight="700">Filament Admin</text>
  <text x="58" y="49" fill="#4b5563" font-size="10">Precious Metals Platform</text>

  <!-- Nav groups -->
  <text x="20" y="90" fill="#4b5563" font-size="10" font-weight="600" letter-spacing="1">OVERVIEW</text>
  <!-- Active: Dashboard -->
  <rect x="8" y="98" width="244" height="36" fill="#f59e0b1a" rx="6"/>
  <rect x="8" y="106" width="3" height="20" fill="#f59e0b" rx="2"/>
  <text x="28" y="121" fill="#f59e0b" font-size="13" font-weight="600">Dashboard</text>

  <text x="20" y="156" fill="#4b5563" font-size="10" font-weight="600" letter-spacing="1">TRADING</text>
  <text x="28" y="178" fill="#9ca3af" font-size="13">Assets</text>
  <text x="28" y="204" fill="#9ca3af" font-size="13">Orders</text>
  <text x="28" y="230" fill="#9ca3af" font-size="13">Savings Plans</text>
  <text x="28" y="256" fill="#9ca3af" font-size="13">Price Alerts</text>

  <text x="20" y="284" fill="#4b5563" font-size="10" font-weight="600" letter-spacing="1">USERS</text>
  <text x="28" y="306" fill="#9ca3af" font-size="13">Users</text>

  <!-- Horizon link -->
  <rect x="8" y="680" width="244" height="36" fill="#1e293b" rx="6"/>
  <text x="28" y="703" fill="#6b7280" font-size="12">Laravel Horizon →</text>

  <!-- Main content -->
  <!-- Top bar -->
  <rect x="260" y="0" width="1020" height="60" fill="#161b27"/>
  <text x="284" y="36" fill="white" font-size="18" font-weight="700">Dashboard</text>
  <!-- User avatar -->
  <circle cx="1246" cy="30" r="18" fill="#f59e0b"/>
  <text x="1239" y="35" fill="#0d1424" font-size="12" font-weight="700">HS</text>

  <!-- Platform KPIs (ActiveAlertsWidget — 30s poll) -->
  <text x="284" y="88" fill="#9ca3af" font-size="11" font-weight="600" letter-spacing="1">PLATFORM KPIs · Auto-refreshes every 30s</text>

  <!-- Stat 1 -->
  <rect x="284" y="100" width="230" height="90" fill="#161b27" rx="8" stroke="#1e293b" stroke-width="1"/>
  <text x="304" y="124" fill="#9ca3af" font-size="11">Active Price Alerts</text>
  <text x="304" y="162" fill="white" font-size="32" font-weight="700">24</text>
  <text x="304" y="180" fill="#f59e0b" font-size="11">3 fired today</text>

  <!-- Stat 2 -->
  <rect x="530" y="100" width="230" height="90" fill="#161b27" rx="8" stroke="#1e293b" stroke-width="1"/>
  <text x="550" y="124" fill="#9ca3af" font-size="11">Active DCA Plans</text>
  <text x="550" y="162" fill="white" font-size="32" font-weight="700">47</text>
  <text x="550" y="180" fill="#22c55e" font-size="11">Automated savings running</text>

  <!-- Stat 3 -->
  <rect x="776" y="100" width="230" height="90" fill="#161b27" rx="8" stroke="#1e293b" stroke-width="1"/>
  <text x="796" y="124" fill="#9ca3af" font-size="11">Orders Filled Today</text>
  <text x="796" y="162" fill="white" font-size="32" font-weight="700">138</text>
  <text x="796" y="180" fill="#3b82f6" font-size="11">$48,200 volume</text>

  <!-- Stat 4 -->
  <rect x="1022" y="100" width="230" height="90" fill="#161b27" rx="8" stroke="#1e293b" stroke-width="1"/>
  <text x="1042" y="124" fill="#9ca3af" font-size="11">Total Users</text>
  <text x="1042" y="162" fill="white" font-size="32" font-weight="700">1,284</text>
  <text x="1042" y="180" fill="#9ca3af" font-size="11">Registered accounts</text>

  <!-- Market Overview Widget (5s poll) -->
  <rect x="284" y="210" width="968" height="300" fill="#161b27" rx="8" stroke="#1e293b" stroke-width="1"/>
  <text x="304" y="236" fill="white" font-size="14" font-weight="600">Live Market Prices</text>
  <text x="304" y="252" fill="#4b5563" font-size="11">Auto-refreshes every 5 seconds from Redis cache · .poll('5s')</text>

  <!-- Poll badge -->
  <rect x="1170" y="224" width="62" height="20" fill="#22c55e1a" rx="10"/>
  <circle cx="1184" cy="234" r="4" fill="#22c55e"/>
  <text x="1192" y="238" fill="#22c55e" font-size="10" font-weight="600">5s poll</text>

  <!-- Table header -->
  <rect x="284" y="264" width="968" height="28" fill="#0f1117" rx="0"/>
  <text x="304" y="282" fill="#4b5563" font-size="11" font-weight="600">SYMBOL</text>
  <text x="400" y="282" fill="#4b5563" font-size="11" font-weight="600">NAME</text>
  <text x="560" y="282" fill="#4b5563" font-size="11" font-weight="600">SPOT</text>
  <text x="670" y="282" fill="#4b5563" font-size="11" font-weight="600">BID</text>
  <text x="760" y="282" fill="#4b5563" font-size="11" font-weight="600">ASK</text>
  <text x="860" y="282" fill="#4b5563" font-size="11" font-weight="600">24h %</text>
  <text x="970" y="282" fill="#4b5563" font-size="11" font-weight="600">SPREAD</text>
  <text x="1110" y="282" fill="#4b5563" font-size="11" font-weight="600">UPDATED</text>

  <!-- XAU row -->
  <line x1="284" y1="292" x2="1252" y2="292" stroke="#1e293b" stroke-width="1"/>
  <text x="304" y="316" fill="#f59e0b" font-size="13" font-weight="700">XAU</text>
  <text x="400" y="316" fill="white" font-size="13">Gold</text>
  <text x="560" y="316" fill="white" font-size="13" font-weight="600">$2,318.40</text>
  <text x="670" y="316" fill="#9ca3af" font-size="12">$2,318.10</text>
  <text x="760" y="316" fill="#9ca3af" font-size="12">$2,318.70</text>
  <rect x="852" y="304" width="76" height="20" fill="#14532d" rx="10"/>
  <text x="862" y="318" fill="#22c55e" font-size="11" font-weight="600">▲ +0.56%</text>
  <text x="970" y="316" fill="#9ca3af" font-size="12">$0.60</text>
  <text x="1110" y="316" fill="#4b5563" font-size="11">2s ago</text>

  <!-- XAG row -->
  <line x1="284" y1="328" x2="1252" y2="328" stroke="#1e293b" stroke-width="1"/>
  <text x="304" y="352" fill="#9ca3af" font-size="13" font-weight="700">XAG</text>
  <text x="400" y="352" fill="white" font-size="13">Silver</text>
  <text x="560" y="352" fill="white" font-size="13" font-weight="600">$29.84</text>
  <text x="670" y="352" fill="#9ca3af" font-size="12">$29.82</text>
  <text x="760" y="352" fill="#9ca3af" font-size="12">$29.86</text>
  <rect x="852" y="340" width="76" height="20" fill="#14532d" rx="10"/>
  <text x="862" y="354" fill="#22c55e" font-size="11" font-weight="600">▲ +1.15%</text>
  <text x="970" y="352" fill="#9ca3af" font-size="12">$0.04</text>
  <text x="1110" y="352" fill="#4b5563" font-size="11">2s ago</text>

  <!-- XPT row -->
  <line x1="284" y1="364" x2="1252" y2="364" stroke="#1e293b" stroke-width="1"/>
  <text x="304" y="388" fill="#818cf8" font-size="13" font-weight="700">XPT</text>
  <text x="400" y="388" fill="white" font-size="13">Platinum</text>
  <text x="560" y="388" fill="white" font-size="13" font-weight="600">$988.20</text>
  <text x="670" y="388" fill="#9ca3af" font-size="12">$987.90</text>
  <text x="760" y="388" fill="#9ca3af" font-size="12">$988.50</text>
  <rect x="852" y="376" width="76" height="20" fill="#4c0519" rx="10"/>
  <text x="862" y="390" fill="#f87171" font-size="11" font-weight="600">▼ −0.56%</text>
  <text x="970" y="388" fill="#9ca3af" font-size="12">$0.60</text>
  <text x="1110" y="388" fill="#4b5563" font-size="11">3s ago</text>

  <!-- XPD row -->
  <line x1="284" y1="400" x2="1252" y2="400" stroke="#1e293b" stroke-width="1"/>
  <text x="304" y="424" fill="#f472b6" font-size="13" font-weight="700">XPD</text>
  <text x="400" y="424" fill="white" font-size="13">Palladium</text>
  <text x="560" y="424" fill="white" font-size="13" font-weight="600">$1,042.60</text>
  <text x="670" y="424" fill="#9ca3af" font-size="12">$1,042.20</text>
  <text x="760" y="424" fill="#9ca3af" font-size="12">$1,043.00</text>
  <rect x="852" y="412" width="76" height="20" fill="#14532d" rx="10"/>
  <text x="862" y="426" fill="#22c55e" font-size="11" font-weight="600">▲ +0.81%</text>
  <text x="970" y="424" fill="#9ca3af" font-size="12">$0.80</text>
  <text x="1110" y="424" fill="#4b5563" font-size="11">1s ago</text>

  <!-- Horizon queue stats -->
  <rect x="284" y="528" width="466" height="180" fill="#161b27" rx="8" stroke="#1e293b" stroke-width="1"/>
  <text x="304" y="554" fill="white" font-size="14" font-weight="600">Queue Supervisors (Horizon)</text>
  <!-- Queue rows -->
  <text x="304" y="582" fill="#9ca3af" font-size="11" font-weight="600">SUPERVISOR</text>
  <text x="560" y="582" fill="#9ca3af" font-size="11" font-weight="600">QUEUE</text>
  <text x="660" y="582" fill="#9ca3af" font-size="11" font-weight="600">PROCESSES</text>

  <line x1="304" y1="590" x2="730" y2="590" stroke="#1e293b" stroke-width="1"/>
  <rect x="298" y="596" width="8" height="8" fill="#22c55e" rx="2"/>
  <text x="312" y="606" fill="white" font-size="12">supervisor-orders</text>
  <text x="560" y="606" fill="#94a3b8" font-size="12">orders</text>
  <text x="660" y="606" fill="#22c55e" font-size="12">4 / 10</text>

  <line x1="304" y1="614" x2="730" y2="614" stroke="#1e293b" stroke-width="1"/>
  <rect x="298" y="620" width="8" height="8" fill="#22c55e" rx="2"/>
  <text x="312" y="630" fill="white" font-size="12">supervisor-savings</text>
  <text x="560" y="630" fill="#94a3b8" font-size="12">savings-plans</text>
  <text x="660" y="630" fill="#22c55e" font-size="12">2 / 5</text>

  <line x1="304" y1="638" x2="730" y2="638" stroke="#1e293b" stroke-width="1"/>
  <rect x="298" y="644" width="8" height="8" fill="#22c55e" rx="2"/>
  <text x="312" y="654" fill="white" font-size="12">supervisor-notifications</text>
  <text x="560" y="654" fill="#94a3b8" font-size="12">notifications</text>
  <text x="660" y="654" fill="#22c55e" font-size="12">3 / 8</text>

  <line x1="304" y1="662" x2="730" y2="662" stroke="#1e293b" stroke-width="1"/>
  <rect x="298" y="668" width="8" height="8" fill="#22c55e" rx="2"/>
  <text x="312" y="678" fill="white" font-size="12">supervisor-default</text>
  <text x="560" y="678" fill="#94a3b8" font-size="12">default</text>
  <text x="660" y="678" fill="#22c55e" font-size="12">2 / 5</text>

  <!-- Price Alerts panel -->
  <rect x="768" y="528" width="484" height="180" fill="#161b27" rx="8" stroke="#1e293b" stroke-width="1"/>
  <text x="788" y="554" fill="white" font-size="14" font-weight="600">Recent Price Alert Fires</text>
  <text x="788" y="576" fill="#4b5563" font-size="11" font-weight="600">USER</text>
  <text x="900" y="576" fill="#4b5563" font-size="11" font-weight="600">ASSET</text>
  <text x="960" y="576" fill="#4b5563" font-size="11" font-weight="600">CONDITION</text>
  <text x="1100" y="576" fill="#4b5563" font-size="11" font-weight="600">TRIGGERED</text>

  <line x1="788" y1="582" x2="1232" y2="582" stroke="#1e293b" stroke-width="1"/>
  <text x="788" y="600" fill="white" font-size="12">ahmed@ex.com</text>
  <text x="900" y="600" fill="#f59e0b" font-size="12" font-weight="600">XAU</text>
  <rect x="956" y="588" width="44" height="18" fill="#14532d" rx="9"/>
  <text x="964" y="601" fill="#22c55e" font-size="10">above</text>
  <text x="1100" y="600" fill="#4b5563" font-size="11">$2,310.00</text>

  <line x1="788" y1="608" x2="1232" y2="608" stroke="#1e293b" stroke-width="1"/>
  <text x="788" y="626" fill="white" font-size="12">sara@ex.com</text>
  <text x="900" y="626" fill="#94a3b8" font-size="12" font-weight="600">XAG</text>
  <rect x="956" y="614" width="38" height="18" fill="#4c0519" rx="9"/>
  <text x="962" y="627" fill="#f87171" font-size="10">below</text>
  <text x="1100" y="626" fill="#4b5563" font-size="11">$28.50</text>

  <line x1="788" y1="634" x2="1232" y2="634" stroke="#1e293b" stroke-width="1"/>
  <text x="788" y="652" fill="white" font-size="12">ali@ex.com</text>
  <text x="900" y="652" fill="#f59e0b" font-size="12" font-weight="600">XAU</text>
  <rect x="956" y="640" width="44" height="18" fill="#14532d" rx="9"/>
  <text x="964" y="653" fill="#22c55e" font-size="10">above</text>
  <text x="1100" y="652" fill="#4b5563" font-size="11">$2,315.00</text>

  <text x="284" y="724" fill="#334155" font-size="11">Filament 3 · ActiveAlertsWidget (30s poll, Redis cache) · MarketOverviewWidget (.poll('5s')) · UserResource · PriceAlertResource · OrderResource</text>
</svg>
