<svg xmlns="http://www.w3.org/2000/svg" viewBox="0 0 1280 740" font-family="'Segoe UI', Arial, sans-serif">
  <!-- Dark background -->
  <rect width="1280" height="740" fill="#0f1117"/>

  <!-- Top nav -->
  <rect width="1280" height="56" fill="#161b27"/>
  <circle cx="32" cy="28" r="12" fill="#f59e0b"/>
  <text x="52" y="33" fill="#f59e0b" font-size="16" font-weight="700">P</text>
  <text x="62" y="33" fill="white" font-size="16" font-weight="700">reciousMetals</text>
  <text x="260" y="33" fill="#94a3b8" font-size="13">Markets</text>
  <text x="330" y="33" fill="#94a3b8" font-size="13">Live Prices</text>
  <text x="400" y="33" fill="white" font-size="13" font-weight="600">Portfolio</text>
  <rect x="396" y="48" width="58" height="2" fill="#f59e0b" rx="1"/>
  <text x="474" y="33" fill="#94a3b8" font-size="13">Orders</text>
  <text x="530" y="33" fill="#94a3b8" font-size="13">Savings Plans</text>
  <text x="630" y="33" fill="#94a3b8" font-size="13">Alerts</text>
  <circle cx="1160" cy="28" r="6" fill="#22c55e"/>
  <text x="1172" y="33" fill="#22c55e" font-size="12" font-weight="600">LIVE</text>

  <!-- Page header -->
  <text x="48" y="96" fill="white" font-size="22" font-weight="700">Portfolio</text>
  <text x="48" y="116" fill="#64748b" font-size="12">Unrealized P&amp;L updates live · Realized P&amp;L locked on sale · GET /api/v1/portfolio</text>

  <!-- Summary cards row -->
  <!-- Total Value -->
  <rect x="48" y="134" width="254" height="100" fill="#161b27" rx="10" stroke="#1e293b" stroke-width="1"/>
  <text x="70" y="158" fill="#64748b" font-size="11" font-weight="600">TOTAL VALUE</text>
  <text x="70" y="200" fill="white" font-size="30" font-weight="700">$38,420.18</text>
  <text x="70" y="222" fill="#22c55e" font-size="11">↑ $1,284.62 unrealized</text>

  <!-- Total Invested -->
  <rect x="318" y="134" width="254" height="100" fill="#161b27" rx="10" stroke="#1e293b" stroke-width="1"/>
  <text x="340" y="158" fill="#64748b" font-size="11" font-weight="600">TOTAL INVESTED</text>
  <text x="340" y="200" fill="white" font-size="30" font-weight="700">$37,135.56</text>
  <text x="340" y="222" fill="#64748b" font-size="11">Cost basis across all holdings</text>

  <!-- Unrealized P&L -->
  <rect x="588" y="134" width="254" height="100" fill="#161b27" rx="10" stroke="#14532d" stroke-width="1"/>
  <text x="610" y="158" fill="#64748b" font-size="11" font-weight="600">UNREALIZED P&amp;L</text>
  <text x="610" y="200" fill="#22c55e" font-size="30" font-weight="700">+$1,284.62</text>
  <text x="610" y="222" fill="#22c55e" font-size="11">+3.46% overall</text>

  <!-- Realized P&L -->
  <rect x="858" y="134" width="254" height="100" fill="#161b27" rx="10" stroke="#1e293b" stroke-width="1"/>
  <text x="880" y="158" fill="#64748b" font-size="11" font-weight="600">REALIZED P&amp;L</text>
  <text x="880" y="200" fill="#22c55e" font-size="30" font-weight="700">+$642.80</text>
  <text x="880" y="222" fill="#64748b" font-size="11">From closed positions</text>

  <!-- Currency tag -->
  <rect x="1128" y="134" width="108" height="100" fill="#161b27" rx="10" stroke="#1e293b" stroke-width="1"/>
  <text x="1160" y="173" fill="#64748b" font-size="11">Currency</text>
  <text x="1155" y="202" fill="white" font-size="22" font-weight="700">USD</text>

  <!-- Holdings table -->
  <rect x="48" y="256" width="820" height="448" fill="#161b27" rx="12"/>
  <text x="72" y="286" fill="white" font-size="15" font-weight="600">Holdings</text>
  <text x="72" y="304" fill="#64748b" font-size="11">Live unrealized P&amp;L calculated against Redis-cached spot prices</text>

  <!-- Table header -->
  <rect x="48" y="316" width="820" height="32" fill="#0f1117" rx="0"/>
  <rect x="48" y="338" width="820" height="10" fill="#0f1117"/>
  <text x="72" y="337" fill="#475569" font-size="11" font-weight="600">ASSET</text>
  <text x="190" y="337" fill="#475569" font-size="11" font-weight="600">QTY (oz)</text>
  <text x="300" y="337" fill="#475569" font-size="11" font-weight="600">AVG COST</text>
  <text x="410" y="337" fill="#475569" font-size="11" font-weight="600">SPOT PRICE</text>
  <text x="530" y="337" fill="#475569" font-size="11" font-weight="600">CURR. VALUE</text>
  <text x="650" y="337" fill="#475569" font-size="11" font-weight="600">UNREAL. P&amp;L</text>
  <text x="770" y="337" fill="#475569" font-size="11" font-weight="600">ALLOC.</text>

  <!-- Row 1 — XAU -->
  <line x1="48" y1="348" x2="868" y2="348" stroke="#1e293b" stroke-width="1"/>
  <circle cx="82" cy="376" r="16" fill="#f59e0b22"/>
  <text x="74" y="381" fill="#f59e0b" font-size="12" font-weight="700">XAU</text>
  <text x="104" y="373" fill="white" font-size="13" font-weight="600">Gold</text>
  <text x="104" y="388" fill="#64748b" font-size="10">Troy ounce</text>
  <text x="190" y="378" fill="white" font-size="13">8.500</text>
  <text x="300" y="378" fill="white" font-size="13">$2,264.18</text>
  <text x="410" y="378" fill="#f59e0b" font-size="13" font-weight="600">$2,318.40</text>
  <text x="530" y="378" fill="white" font-size="13">$19,706.40</text>
  <rect x="644" y="365" width="92" height="22" fill="#14532d" rx="11"/>
  <text x="652" y="380" fill="#22c55e" font-size="12" font-weight="600">+$460.87  +2.40%</text>
  <!-- Alloc bar -->
  <rect x="760" y="368" width="80" height="10" fill="#1e293b" rx="5"/>
  <rect x="760" y="368" width="41" height="10" fill="#f59e0b" rx="5"/>
  <text x="760" y="394" fill="#94a3b8" font-size="10">51.3%</text>

  <!-- Row 2 — XAG -->
  <line x1="48" y1="400" x2="868" y2="400" stroke="#1e293b" stroke-width="1"/>
  <circle cx="82" cy="428" r="16" fill="#94a3b822"/>
  <text x="74" y="433" fill="#94a3b8" font-size="12" font-weight="700">XAG</text>
  <text x="104" y="425" fill="white" font-size="13" font-weight="600">Silver</text>
  <text x="104" y="440" fill="#64748b" font-size="10">Troy ounce</text>
  <text x="190" y="430" fill="white" font-size="13">200.000</text>
  <text x="300" y="430" fill="white" font-size="13">$28.42</text>
  <text x="410" y="430" fill="#94a3b8" font-size="13" font-weight="600">$29.84</text>
  <text x="530" y="430" fill="white" font-size="13">$5,968.00</text>
  <rect x="644" y="417" width="92" height="22" fill="#14532d" rx="11"/>
  <text x="652" y="432" fill="#22c55e" font-size="12" font-weight="600">+$284.00  +5.00%</text>
  <rect x="760" y="420" width="80" height="10" fill="#1e293b" rx="5"/>
  <rect x="760" y="420" width="12" height="10" fill="#94a3b8" rx="5"/>
  <text x="760" y="446" fill="#94a3b8" font-size="10">15.5%</text>

  <!-- Row 3 — XPT -->
  <line x1="48" y1="452" x2="868" y2="452" stroke="#1e293b" stroke-width="1"/>
  <circle cx="82" cy="480" r="16" fill="#6366f122"/>
  <text x="74" y="485" fill="#818cf8" font-size="12" font-weight="700">XPT</text>
  <text x="104" y="477" fill="white" font-size="13" font-weight="600">Platinum</text>
  <text x="104" y="492" fill="#64748b" font-size="10">Troy ounce</text>
  <text x="190" y="482" fill="white" font-size="13">10.000</text>
  <text x="300" y="482" fill="white" font-size="13">$1,002.40</text>
  <text x="410" y="482" fill="#818cf8" font-size="13" font-weight="600">$988.20</text>
  <text x="530" y="482" fill="white" font-size="13">$9,882.00</text>
  <rect x="644" y="469" width="90" height="22" fill="#4c0519" rx="11"/>
  <text x="652" y="484" fill="#f87171" font-size="12" font-weight="600">−$142.00  −1.42%</text>
  <rect x="760" y="472" width="80" height="10" fill="#1e293b" rx="5"/>
  <rect x="760" y="472" width="20" height="10" fill="#6366f1" rx="5"/>
  <text x="760" y="498" fill="#94a3b8" font-size="10">25.7%</text>

  <!-- Row 4 — XPD -->
  <line x1="48" y1="504" x2="868" y2="504" stroke="#1e293b" stroke-width="1"/>
  <circle cx="82" cy="532" r="16" fill="#ec489922"/>
  <text x="74" y="537" fill="#f472b6" font-size="12" font-weight="700">XPD</text>
  <text x="104" y="529" fill="white" font-size="13" font-weight="600">Palladium</text>
  <text x="104" y="544" fill="#64748b" font-size="10">Troy ounce</text>
  <text x="190" y="534" fill="white" font-size="13">2.500</text>
  <text x="300" y="534" fill="white" font-size="13">$1,010.40</text>
  <text x="410" y="534" fill="#f472b6" font-size="13" font-weight="600">$1,042.60</text>
  <text x="530" y="534" fill="white" font-size="13">$2,606.50</text>
  <rect x="644" y="521" width="74" height="22" fill="#14532d" rx="11"/>
  <text x="652" y="536" fill="#22c55e" font-size="12" font-weight="600">+$80.50  +3.18%</text>
  <rect x="760" y="524" width="80" height="10" fill="#1e293b" rx="5"/>
  <rect x="760" y="524" width="6" height="10" fill="#ec4899" rx="5"/>
  <text x="760" y="550" fill="#94a3b8" font-size="10">6.8%</text>

  <!-- Realized P&L section -->
  <line x1="48" y1="564" x2="868" y2="564" stroke="#1e293b" stroke-width="1"/>
  <text x="72" y="592" fill="#64748b" font-size="12">Previous sells (closed positions)</text>
  <text x="530" y="592" fill="#64748b" font-size="12">—</text>
  <text x="650" y="592" fill="#22c55e" font-size="13" font-weight="600">+$642.80 realized</text>

  <!-- Refresh note -->
  <rect x="48" y="614" width="820" height="52" fill="#0f1117" rx="8"/>
  <text x="72" y="636" fill="#475569" font-size="11">POST /api/v1/portfolio/refresh — force-recalculates all entries against live Redis-cached spot prices</text>
  <text x="72" y="654" fill="#475569" font-size="11">PortfolioService::applyOrder() runs inside DB::transaction() on every order fill · weighted avg cost basis</text>

  <!-- Allocation donut chart (simple) -->
  <rect x="900" y="256" width="340" height="448" fill="#161b27" rx="12"/>
  <text x="924" y="286" fill="white" font-size="15" font-weight="600">Allocation</text>

  <!-- Donut chart approximation using arcs -->
  <circle cx="1070" cy="440" r="110" fill="none" stroke="#1e293b" stroke-width="28"/>
  <!-- XAU 51.3% -->
  <circle cx="1070" cy="440" r="110" fill="none" stroke="#f59e0b" stroke-width="28"
          stroke-dasharray="354 690" stroke-dashoffset="0"/>
  <!-- XAG 15.5% -->
  <circle cx="1070" cy="440" r="110" fill="none" stroke="#94a3b8" stroke-width="28"
          stroke-dasharray="107 690" stroke-dashoffset="-354"/>
  <!-- XPT 25.7% -->
  <circle cx="1070" cy="440" r="110" fill="none" stroke="#6366f1" stroke-width="28"
          stroke-dasharray="177 690" stroke-dashoffset="-461"/>
  <!-- XPD 6.8% -->
  <circle cx="1070" cy="440" r="110" fill="none" stroke="#ec4899" stroke-width="28"
          stroke-dasharray="47 690" stroke-dashoffset="-638"/>

  <!-- Center label -->
  <text x="1058" y="432" fill="white" font-size="18" font-weight="700">$38.4k</text>
  <text x="1058" y="450" fill="#64748b" font-size="11">total value</text>

  <!-- Legend -->
  <rect x="924" y="568" width="12" height="12" fill="#f59e0b" rx="2"/>
  <text x="942" y="579" fill="#94a3b8" font-size="12">Gold (XAU) — 51.3%</text>
  <rect x="924" y="590" width="12" height="12" fill="#94a3b8" rx="2"/>
  <text x="942" y="601" fill="#94a3b8" font-size="12">Silver (XAG) — 15.5%</text>
  <rect x="1078" y="568" width="12" height="12" fill="#6366f1" rx="2"/>
  <text x="1096" y="579" fill="#94a3b8" font-size="12">Platinum (XPT) — 25.7%</text>
  <rect x="1078" y="590" width="12" height="12" fill="#ec4899" rx="2"/>
  <text x="1096" y="601" fill="#94a3b8" font-size="12">Palladium (XPD) — 6.8%</text>

  <!-- Footer -->
  <text x="48" y="724" fill="#334155" font-size="11">Weighted avg cost basis · Realized P&amp;L on sell · PortfolioEntry model · PortfolioService::applyOrder() in DB transaction</text>
</svg>
